{
  "title": "Deepwater.Horizon.2016.HDCAM.800MB.Makintos13",
  "uid": 15959206,
  "size": 859357947,
  "categoryP": "video",
  "categoryS": "movies",
  "magnet": "?xt=urn:btih:04348dc6bfaa8f02ec6cf87639e7df5a515c6419&amp;dn=Deepwater.Horizon.2016.HDCAM.800MB.Makintos13&amp;tr=udp%3A%2F%2Ftracker.leechers-paradise.org%3A6969&amp;tr=udp%3A%2F%2Fzer0day.ch%3A1337&amp;tr=udp%3A%2F%2Fopen.demonii.com%3A1337&amp;tr=udp%3A%2F%2Ftracker.coppersurfer.tk%3A6969&amp;tr=udp%3A%2F%2Fexodus.desync.com%3A6969",
  "seeders": 94,
  "leechers": 71,
  "uploader": "makintos13",
  "files": 1,
  "time": 1475643477,
  "description": "Deepwater.Horizon.2016.HDCAM.800MB.Makintos13\r\n\r\nScreens:\r\n \nhttps://imgmak.com/a2F\r\n \nhttps://imgmak.com/a2i\r\n \nhttps://imgmak.com/a2j\r\n \nhttps://imgmak.com/a2w\r\n \nhttps://imgmak.com/a2J\r\n \nhttps://imgmak.com/a2W\r\n \nhttps://imgmak.com/a2d\r\n\r\nFormat : Matroska\r\nFormat version : Version 4 / Version 2\r\nFile size : 820 MiB\r\nDuration : 1 h 36 min\r\nOverall bit rate : 1 184 kb/s\r\n\r\n\r\nVideo\r\nID : 1\r\nFormat : AVC\r\nFormat/Info : Advanced Video Codec\r\nFormat profile :   \r\nFormat settings, CABAC : Yes\r\nFormat settings, ReFrames : 4 frames\r\nCodec ID : V_MPEG4/ISO/AVC\r\nDuration : 1 h 36 min\r\nBit rate : 1 117 kb/s\r\nWidth : 640 pixels\r\nHeight : 272 pixels\r\nDisplay aspect ratio : 2.35:1\r\nFrame rate mode : Constant\r\nFrame rate : 29.970 (30000/1001) FPS\r\nColor space : YUV\r\nChroma subsampling : 4:2:0\r\nBit depth : 8 bits\r\nScan type : Progressive\r\nBits/(Pixel*Frame) : 0.214\r\nStream size : 773 MiB (94%)\r\n\r\nDefault : Yes\r\nForced : No\r\n\r\nAudio\r\nID : 2\r\nFormat : AAC\r\nFormat/Info : Advanced Audio Codec\r\nFormat profile : LC\r\nCodec ID : A_AAC\r\nDuration : 1 h 36 min\r\nBit rate : 64.3 kb/s\r\nChannel(s) : 2 channels\r\nChannel positions : Front: L R\r\nSampling rate : 48.0 kHz\r\nFrame rate : 46.875 FPS (1024 spf)\r\nCompression mode : Lossy\r\nDelay relative to video : 45 ms\r\nStream size : 44.5 MiB (5%)\r\nTitle : Stereo\r\nDefault : Yes\r\nForced : No\r\n\r\nSource : Unknown (thanks)",
  "parsed": {
    "xt": "urn:btih:04348dc6bfaa8f02ec6cf87639e7df5a515c6419",
    "dn": "Deepwater.Horizon.2016.HDCAM.800MB.Makintos13",
    "tr": [
      "udp://exodus.desync.com:6969",
      "udp://open.demonii.com:1337",
      "udp://tracker.coppersurfer.tk:6969",
      "udp://tracker.leechers-paradise.org:6969",
      "udp://zer0day.ch:1337"
    ],
    "infoHash": "04348dc6bfaa8f02ec6cf87639e7df5a515c6419",
    "infoHashBuffer": {
      "type": "Buffer",
      "data": [
        4,
        52,
        141,
        198,
        191,
        170,
        143,
        2,
        236,
        108,
        248,
        118,
        57,
        231,
        223,
        90,
        81,
        92,
        100,
        25
      ]
    },
    "name": "Deepwater.Horizon.2016.HDCAM.800MB.Makintos13",
    "announce": [
      "udp://exodus.desync.com:6969",
      "udp://open.demonii.com:1337",
      "udp://tracker.coppersurfer.tk:6969",
      "udp://tracker.leechers-paradise.org:6969",
      "udp://zer0day.ch:1337"
    ],
    "urlList": []
  },
  "previous": 100,
  "peers": 115,
  "last_updated": "2016-12-26T14:58:03.153Z"
}